<svg xmlns="http://www.w3.org/2000/svg" version="1.1" xmlns:xlink="http://www.w3.org/1999/xlink" xmlns:svgjs="http://svgjs.dev/svgjs" width="1000" height="489" viewBox="0 0 1000 489"><g transform="matrix(1,0,0,1,-0.6060606060606801,-0.1489314662254344)"><svg viewBox="0 0 396 194" data-background-color="#8d021f" preserveAspectRatio="xMidYMid meet" height="489" width="1000" xmlns="http://www.w3.org/2000/svg" xmlns:xlink="http://www.w3.org/1999/xlink"><defs></defs><g id="tight-bounds" transform="matrix(1,0,0,1,0.24000000000003752,0.059085285169189206)"><svg viewBox="0 0 395.5199999999999 193.88182628868222" height="193.88182628868222" width="395.5199999999999"><g><svg viewBox="0 0 397.4975999999999 194.85123542012562" height="193.88182628868222" width="395.5199999999999"><g><rect width="397.4975999999999" height="5.968035988349392" x="0" y="107.08167322685364" fill="#ffffff" opacity="1" stroke-width="0" stroke="transparent" fill-opacity="1" class="rect-o-0" data-fill-palette-color="primary" rx="1%" id="o-0" data-palette-color="#ffffff"></rect></g><g transform="matrix(1,0,0,1,0.9887999999999693,128.6728400747564)"><svg viewBox="0 0 395.52 66.17839534536921" height="66.17839534536921" width="395.52"><g><svg viewBox="0 0 395.52 66.17839534536921" height="66.17839534536921" width="395.52"><g><svg viewBox="0 0 395.52 66.17839534536921" height="66.17839534536921" width="395.52"><g transform="matrix(1,0,0,1,0,0)"><svg width="395.52" viewBox="4.486666679382324 -36.0625 217.5033416748047 36.39365768432617" height="66.17839534536921" data-palette-color="#ffffff"><g class="undefined-text-0" data-fill-palette-color="primary" id="text-0"><path d="M38.4-2.35L38.4-2.35Q38.35-1.3 37.6-0.6 36.85 0.1 35.8 0.05 34.75 0 34.05-0.75 33.35-1.5 33.4-2.55L33.4-2.55Q33.6-4.05 33.55-14.5 33.5-24.95 33.5-26.45L33.5-26.45Q29.65-21.45 24.6-13.65L24.6-13.65Q24.05-12.75 23.03-12.55 22-12.35 21.15-12.9L21.15-12.9Q21.1-12.95 21.05-12.95L21.05-12.95Q20.6-13.25 20.3-13.65L20.3-13.65Q18.2-16.6 13.2-22.6L13.2-22.6 9.95-26.5Q10.1-22.75 10.1-17.9L10.1-17.9Q10.1-15.5 10.03-10.35 9.95-5.2 9.95-2.55L9.95-2.55Q9.95-1.5 9.22-0.78 8.5-0.05 7.45-0.05 6.4-0.05 5.68-0.78 4.95-1.5 4.95-2.55L4.95-2.55Q4.95-5.2 5.03-10.35 5.1-15.5 5.1-17.95L5.1-17.95Q5.1-27.3 4.5-33L4.5-33Q4.4-34.05 5.05-34.85 5.7-35.65 6.75-35.75L6.75-35.75Q7.25-35.8 7.7-35.65L7.7-35.65Q8.85-35.6 9.6-34.7L9.6-34.7 17.05-25.85Q20.2-22.1 22.35-19.3L22.35-19.3Q29.05-29.5 34-34.85L34-34.85Q34.2-35.05 34.4-35.2L34.4-35.2Q35.2-35.95 36.25-35.9 37.3-35.85 38-35.1 38.7-34.35 38.65-33.3L38.65-33.3Q38.45-28.05 38.53-17.73 38.6-7.4 38.4-2.35L38.4-2.35ZM71.65-0.2L71.65-0.2Q64.9-0.1 50.4-0.35L50.4-0.35Q49.4-0.35 48.67-1.1 47.95-1.85 47.95-2.85L47.95-2.85Q47.65-3.45 47.65-4.1L47.65-4.1Q47.75-7.5 47.75-13.9 47.75-20.3 47.8-22.6L47.8-22.6Q47.8-23.45 47.75-25.58 47.7-27.7 47.75-29.53 47.8-31.35 48.05-32.95L48.05-32.95Q48.15-33.65 48.65-34.2 49.15-34.75 49.85-34.95L49.85-34.95Q50.5-35.55 51.45-35.6L51.45-35.6Q55.15-35.7 62.02-35.75 68.9-35.8 71.4-35.8L71.4-35.8Q72.45-35.8 73.17-35.08 73.9-34.35 73.9-33.3 73.9-32.25 73.17-31.53 72.45-30.8 71.4-30.8L71.4-30.8Q68.75-30.8 62.47-30.75 56.2-30.7 52.8-30.65L52.8-30.65Q52.65-29.95 52.72-26.83 52.8-23.7 52.8-22.5L52.8-22.5 52.8-20.45Q55.25-20.6 58.02-20.6 60.8-20.6 64.32-20.55 67.85-20.5 69.55-20.5L69.55-20.5Q70.6-20.5 71.32-19.78 72.05-19.05 72.05-18 72.05-16.95 71.32-16.23 70.6-15.5 69.55-15.5L69.55-15.5Q67.8-15.5 64.27-15.55 60.75-15.6 58-15.6 55.25-15.6 52.75-15.45L52.75-15.45Q52.75-8.35 52.7-5.3L52.7-5.3Q64.9-5.1 71.55-5.2L71.55-5.2Q72.6-5.2 73.35-4.5 74.1-3.8 74.1-2.75 74.1-1.7 73.4-0.95 72.7-0.2 71.65-0.2L71.65-0.2ZM114.5-2.35L114.5-2.35Q114.45-1.3 113.7-0.6 112.95 0.1 111.9 0.05 110.85 0 110.15-0.75 109.45-1.5 109.5-2.55L109.5-2.55Q109.7-4.05 109.65-14.5 109.6-24.95 109.6-26.45L109.6-26.45Q105.75-21.45 100.7-13.65L100.7-13.65Q100.15-12.75 99.12-12.55 98.1-12.35 97.25-12.9L97.25-12.9Q97.2-12.95 97.15-12.95L97.15-12.95Q96.7-13.25 96.4-13.65L96.4-13.65Q94.3-16.6 89.3-22.6L89.3-22.6 86.05-26.5Q86.2-22.75 86.2-17.9L86.2-17.9Q86.2-15.5 86.12-10.35 86.05-5.2 86.05-2.55L86.05-2.55Q86.05-1.5 85.32-0.78 84.6-0.05 83.55-0.05 82.5-0.05 81.77-0.78 81.05-1.5 81.05-2.55L81.05-2.55Q81.05-5.2 81.12-10.35 81.2-15.5 81.2-17.95L81.2-17.95Q81.2-27.3 80.6-33L80.6-33Q80.5-34.05 81.15-34.85 81.8-35.65 82.85-35.75L82.85-35.75Q83.35-35.8 83.8-35.65L83.8-35.65Q84.95-35.6 85.7-34.7L85.7-34.7 93.15-25.85Q96.3-22.1 98.45-19.3L98.45-19.3Q105.15-29.5 110.1-34.85L110.1-34.85Q110.3-35.05 110.5-35.2L110.5-35.2Q111.3-35.95 112.35-35.9 113.4-35.85 114.1-35.1 114.8-34.35 114.75-33.3L114.75-33.3Q114.55-28.05 114.62-17.73 114.7-7.4 114.5-2.35L114.5-2.35ZM134.84 0.15L134.84 0.15Q132.24-0.2 130.09-1.23 127.94-2.25 126.44-3.75 124.94-5.25 123.82-7.15 122.69-9.05 122.22-11.13 121.74-13.2 121.57-15.4 121.39-17.6 121.64-19.65L121.64-19.65Q121.94-22.25 122.82-24.7 123.69-27.15 125.19-29.33 126.69-31.5 128.67-33.02 130.64-34.55 133.29-35.25 135.94-35.95 138.59-36.05L138.59-36.05Q139.79-36.1 141.09-35.95L141.09-35.95Q143.54-35.65 145.04-35.15L145.04-35.15Q148.49-34 150.77-31.63 153.04-29.25 154.04-26.38 155.04-23.5 155.07-20.28 155.09-17.05 154.32-13.95 153.54-10.85 151.94-8 150.34-5.15 147.74-3.13 145.14-1.1 141.77-0.23 138.39 0.65 134.84 0.15L134.84 0.15ZM135.59-4.95L135.59-4.95Q140.24-4.1 144.24-6.9L144.24-6.9Q148.29-9.7 149.54-15.3L149.54-15.3Q150.29-18.7 149.89-21.73 149.49-24.75 147.79-27.03 146.09-29.3 143.69-30.25L143.69-30.25Q142.54-30.7 141.87-30.85 141.19-31 140.24-31L140.24-31Q139.49-31 138.59-31.05L138.59-31.05Q137.64-31.1 136.09-30.9L136.09-30.9Q133.24-30.55 130.24-27.38 127.24-24.2 126.69-19.1L126.69-19.1Q126.29-15.55 127.07-12.45 127.84-9.35 130.09-7.45L130.09-7.45Q132.29-5.6 135.59-4.95L135.59-4.95ZM185.89-1.7L184.89-5.3 183.99-7.8Q183.74-8.8 183.29-9.93 182.84-11.05 182.34-11.8L182.34-11.8Q181.39-13.15 179.62-13.93 177.84-14.7 174.19-14.9L174.19-14.9Q173.69-14.9 173.19-14.85L173.19-14.85Q172.69-14.85 171.22-14.7 169.74-14.55 169.09-14.5L169.09-14.5Q167.69-14.35 166.99-14.45L166.99-14.45Q167.09-7.15 167.09-2.55L167.09-2.55Q167.09-1.5 166.37-0.78 165.64-0.05 164.59-0.05 163.54-0.05 162.82-0.78 162.09-1.5 162.09-2.55L162.09-2.55Q162.09-7.45 161.97-17.28 161.84-27.1 161.84-32L161.84-32Q161.84-32.85 162.39-33.55L162.39-33.55Q162.54-34.25 163.09-34.75 163.64-35.25 164.39-35.35L164.39-35.35Q167.24-35.8 170.79-35.88 174.34-35.95 179.04-35.35L179.04-35.35Q180.74-35.1 182.22-34.68 183.69-34.25 185.32-33.43 186.94-32.6 188.07-31.53 189.19-30.45 189.89-28.83 190.59-27.2 190.49-25.2L190.49-25.2Q190.29-19.75 184.19-17.05L184.19-17.05Q185.49-16.05 186.44-14.65L186.44-14.65Q187.14-13.6 187.79-12.05 188.44-10.5 188.82-9.28 189.19-8.05 189.77-6.15 190.34-4.25 190.69-3.1L190.69-3.1Q190.99-2.15 190.49-1.23 189.99-0.3 189.02 0 188.04 0.3 187.12-0.2 186.19-0.7 185.89-1.7L185.89-1.7ZM166.94-19.75L167.54-19.85Q167.89-19.9 168.39-19.9L168.39-19.9Q169.19-19.95 170.49-19.95L170.49-19.95Q172.99-20 173.69-19.95L173.69-19.95 174.19-19.95Q178.54-20.25 181.34-21.3L181.34-21.3Q185.39-22.75 185.49-25.4L185.49-25.4Q185.64-29.2 178.24-30.45L178.24-30.45Q173.14-31.3 166.84-30.65L166.84-30.65Q166.84-26.45 166.94-19.75L166.94-19.75ZM205.19-2.25L205.19-2.25Q204.99-3.7 204.94-8.75L204.94-8.75Q204.89-11.95 204.84-13.05L204.84-13.05 196.84-26.2Q194.99-29.3 193.44-32.2L193.44-32.2Q192.94-33.1 193.24-34.1 193.54-35.1 194.44-35.6 195.34-36.1 196.34-35.8 197.34-35.5 197.84-34.6L197.84-34.6Q200.09-30.4 207.19-18.75L207.19-18.75Q208.14-20.3 210.04-23 211.94-25.7 212.64-26.85L212.64-26.85Q212.99-27.4 214.94-30.8L214.94-30.8Q216.39-33.35 217.44-34.9L217.44-34.9Q217.99-35.75 219.01-35.95 220.04-36.15 220.89-35.58 221.74-35 221.94-33.98 222.14-32.95 221.54-32.1L221.54-32.1Q220.89-31.1 219.29-28.3L219.29-28.3 216.94-24.25Q216.04-22.85 213.54-19.28 211.04-15.7 209.94-13.4L209.94-13.4Q209.89-13.25 209.84-13.15L209.84-13.15Q209.89-12.05 209.94-8.8L209.94-8.8Q209.99-4.1 210.19-2.75L210.19-2.75Q210.29-1.7 209.61-0.9 208.94-0.1 207.91 0 206.89 0.1 206.09-0.58 205.29-1.25 205.19-2.25L205.19-2.25Z" fill="#ffffff" data-fill-palette-color="primary"></path></g></svg></g></svg></g></svg></g></svg></g><g transform="matrix(1,0,0,1,148.25831830135422,0)"><svg viewBox="0 0 100.9809633972915 91.45854236730025" height="91.45854236730025" width="100.9809633972915"><g><svg xmlns="http://www.w3.org/2000/svg" xmlns:xlink="http://www.w3.org/1999/xlink" version="1.1" x="0" y="0" viewBox="2 6.334999084472656 92.00499725341797 83.3290023803711" enable-background="new 0 0 96 96" xml:space="preserve" height="91.45854236730025" width="100.9809633972915" class="icon-icon-0" data-fill-palette-color="accent" id="icon-0"><path d="M32.524 18.46l8.716-8.712c0.78-0.78 0.78-2.048 0-2.828-0.78-0.78-2.048-0.78-2.828 0l-10.24 10.236c-0.152 0.152-0.248 0.328-0.336 0.508h-2.9C11.14 17.664 2 52.384 2 66.452c0 14.096 9.004 23.212 22.936 23.212h4.192c13.928 0 22.933-9.107 22.933-23.212C52.064 53.58 44.396 23.492 32.524 18.46z" fill="#ffffff" data-fill-palette-color="accent"></path><path d="M63.764 39.968c0.156 0.04 0.32 0.06 0.484 0.06 0.432 0 0.863-0.144 1.216-0.412 0.484-0.368 0.769-0.936 0.784-1.548 0.1-4.956 0.416-20.04-13.309-22.252-0.92-0.156-1.848 0.376-2.184 1.26-1.939 5.06-1.852 9.86 0.248 13.884C53.256 35.288 57.792 38.488 63.764 39.968z" fill="#ffffff" data-fill-palette-color="accent"></path><path d="M71.973 41.972l7.252-7.256c0.779-0.78 0.779-2.048 0-2.828-0.776-0.78-2.049-0.78-2.828 0l-9.448 9.456c-0.093 0.092-0.14 0.212-0.216 0.32h-3.097c-3.911 0-7.696 1.044-11.168 2.82 2.425 8.872 3.597 17.388 3.597 21.976 0 8.132-2.709 14.937-7.42 19.704 4.151 2.256 9.287 3.5 14.996 3.5h4.728c15.575 0 25.636-8.492 25.636-21.637C93.996 54.996 84.229 43.844 71.973 41.972z" fill="#ffffff" data-fill-palette-color="accent"></path></svg></g></svg></g><g></g></svg></g></svg><rect width="395.5199999999999" height="193.88182628868222" fill="none" stroke="none" visibility="hidden"></rect></g></svg></g></svg>